M48
;Layer_Color=9474304
;FILE_FORMAT=4:4
METRIC,LZ
;TYPE=PLATED
T1F00S00C0.2500
T2F00S00C0.3000
T3F00S00C0.5080
T4F00S00C0.6000
T5F00S00C0.9000
T6F00S00C1.0160
T7F00S00C1.2000
T8F00S00C1.5240
T9F00S00C3.8000
%
T01
X00006477Y00389288
Y00406052
X00028575
Y00389288
X00052197
Y00406052
Y00578358
Y00595122
X00028575
Y00578358
X00006477
Y00595122
Y00786399
Y00803163
X00028575
Y00786399
X00052197
Y00803163
T02
X0019685Y000127
X0024765
X0027305
Y0011684
X0024765
Y001397
Y001651
X0027305
X0022225
X0019685
Y001397
Y0011684
X0029845
X0032385Y001143
Y000889
Y000635
Y000381
X0034925
X0037465
Y000635
Y000889
Y001143
Y001397
Y001651
X0040005
X0042545
Y001397
Y001143
Y000889
X0045085
X0047625
X0050165
Y000635
Y000381
Y000127
X0052705
X005715
X005969
X006223
X006477
Y000381
X006731
Y000635
Y000889
Y001143
X006477
Y001397
Y001651
X006223
X005969
X005715
X005461
X005207
Y001397
Y0011684
X005715
Y001397
X005969Y0011684
X006223
X006477Y000889
Y000635
X006731Y000127
Y001397
Y001651
X0047625Y000635
X0045085
X0042545
X0042579Y0004225
X0040005Y000381
Y000635
Y000889
Y001143
Y001397
X0034925
Y001143
Y000889
Y000635
Y000127
X0037465
X0040005
X0042545
X0045085
X0047625
X0032385
X0029845
Y001651
X0032385
X0034925
X0032385Y001397
X006985
Y001651
X007239
X007493
Y001397
Y001143
Y000889
X007747
X008001
X008255
Y000635
Y000381
Y000127
X008001
X007747
X007493
X007239
Y000381
Y000635
X007493
X007493Y0004191
X007747Y000635
X008001
X008509
Y000889
Y001143
Y001397
Y001651
Y000381
Y000127
X006985
Y000381
Y000635
Y000889
X007239
Y001143
Y001397
X006985Y001143
X007239Y001905
X0071501Y0023876
Y0025019
Y0026162
X0069977
X0068453
Y0025019
Y0023876
X0069977
Y0027686
X0068453
Y002921
X0069977
X0071501
Y0027686
X0070739Y0026924
X0069215
Y0028448
X0070739
X008255Y002921
X008509
Y002667
Y002413
Y002159
X00701294Y0054356
X0065405Y0053975
X006604Y005207
X0064135Y0052705
X0062865Y0053975
X0061595
Y0052705
X0061595Y0051435
Y0050165
X0060325Y0050165
X0060325Y0048895
X0059055Y0048768
X0057785
X0056515Y0048768
X0055245
X0053975
X0052705
X0051435
Y0046355
X0052705
X0053975
X0055245
X0056515
Y0045085
X0057785
Y0046355
X0059055
X0060325
X0061595Y0046355
X0062865Y0046355
Y0047625
Y0048895
Y0050165
Y0051435
X0059182Y0051435
Y0052705
X0059182Y0053975
X0059182Y0055245
X0058039Y0056515
X0060325Y0056515
X0061595
Y0055245
X0062865
Y0056515
X0061595Y0047625
X0062865Y0045085
Y0043815
Y0042545
X0061595Y0043815
X0060325Y0043815
X0060325Y0042545
Y0041275
X0057785
Y0042545
Y0043815
X0055245
X0053975
X0053975Y0045085
X0051435Y0045085
X0050165
X0050165Y0047498
X0048895Y0046355
X0047625Y0046355
X0046355
X0045085Y0046355
Y0045085
X0043815
X0043815Y0043815
X0045085
X0046355Y0042545
Y0041275
X0047625Y0041275
X0048895Y0041275
X0050165
Y0042545
X0048895
X0048895Y0043815
X0047625Y0043815
Y0042545
X0047625Y0045085
X0048895Y0048768
X0048768Y0050165
X0046355Y0050165
Y0051435
Y0052705
Y0053975
Y0055245
Y0056515
X0045085
X0043815Y0055245
Y0052705
Y0051435
X0045085
Y0048895
X0043815
Y0047625
X0046355Y0048895
X0048768Y0052705
Y0053975
Y0055245
X0051435Y0043815
X0052705Y0042545
Y0041275
X0055245
Y0042545
X0060325Y0045085
X0065405Y0046355
X006604Y004572
X0057912Y0050165
X005715Y002921
X005969
X006223
X006477
Y002667
X006731
Y002413
X006477
Y0021082
Y001905
X006731
Y0021082
Y002921
X005461
Y002667
X005207
Y002413
Y002159
X005461
Y002413
Y001905
X005207Y002921
X004953
X0038989
X0038227Y0028448
Y0026924
X0036703
Y0028448
X0037465Y002921
X0035941
X0034925
Y002667
X0035941Y0026162
Y0025019
Y0023876
X0034925Y002413
X0032385
Y002667
Y002921
X0029845
X0029591Y0034671
X0028321
Y0036957
X0029591
Y0038227
Y0039497
X0028321
Y0041783
X0029591Y0042037
Y0043307
Y0044577
X0030861
X0029591Y0045847
X0030861Y0047117
Y0049657
X00296545Y00497205
X0029591Y0050927
X0030861Y0050927
Y0053467
Y0054737
Y0056007
X0029591
X0028321
Y0054737
Y0053467
Y0052197
Y0049784
X0029591Y0053467
X0032131Y0054737
X0033401
X0030861Y0042037
Y0040767
Y0038227
X0032131
Y0036957
X0030861
Y0035687
X0035941Y0027686
X0037465
X0038989
Y0026162
Y0025019
Y0023876
X0037465
Y0026162
X0034925Y0021082
Y001905
X0032385
Y0021082
X0040005Y001905
X00437896Y00365506
X0027051Y0036957
X0025781
X0025146Y0035052
X0023241Y0035687
Y0036957
X0021971
Y0038227
Y0039497
X0020701
X0019431
Y0038227
X0018161
Y0036957
X0016891
X0014351
Y0038227
Y0039497
X0013081
X0015621
Y0038227
X0016891Y0039497
X0018161
Y004191
X0019431
X0020701
X0021971Y0041783
X0023241
X0024511
X0025781
X0027051
X0027178Y0043307
X0027178Y0044577
X0027178Y0045847
X0027051Y0049911
Y0052197
Y0053467
X0025781
Y0054737
Y0056007
X0027051
X0023241
X0021971
Y0054737
X0020701
X0019431
Y0053467
Y0052197
X0020701
X0021971
Y0053467
X0023241
Y0054737
X0024511Y0053467
Y0051181
X0023241
X0021971Y0049911
X0019177Y0049657
Y0050927
X0016891
Y0052197
Y0053467
Y0054737
Y0056007
X0018161Y0054737
Y0053467
Y0052197
X0015621
X0014351Y0053467
Y0054737
X0013081
Y0053467
Y0050927
X0014351
Y0049657
Y0048387
Y0047117
X0015621
X0016891
Y0048387
Y0049657
X0015621
X0012065
Y0048387
Y0047117
X0013081Y0045847
Y0044577
X0014351
X0015621
Y0043307
X0016891
Y0044577
Y0045847
X0019177
Y0047117
Y0048387
X0016891Y0042037
X0014351
Y0040767
X0015621
X0013081Y0043307
X0010668Y0044577
Y0045847
X000875Y004558
X00077074Y00445374
X00087Y004175
X00087Y0035243
X0018161Y0034671
X0019431Y0035687
X0020701Y0034671
X0021971
X0023241Y0033401
X00257556Y00309626
X0024765Y002921
X0027305
X0022225
Y002667
Y002413
Y002159
Y001905
X0019685
Y002159
Y002413
Y002667
Y002921
X0020701Y0036957
X0024511Y0038227
Y0039497
X0023241
X0025781
X0027051
Y0038227
X0027305Y0034671
X0025781Y0051181
X0007493Y0051562
X0016187Y00576
X0023241Y0058293
X0025077Y00576
X0020066Y0061595
X002032Y006858
Y007112
X002159Y007239
Y007493
X002413
X00254Y00762
X002794
Y007874
X002667Y007747
Y007493
X002794Y007366
X002667Y007239
X00254Y007366
X002413Y007239
X002286Y007366
X002032
X0019986Y007755
X002032Y007874
X002159Y008001
Y008255
X002413
X0025596Y0082481
X00254Y008382
X002794
X002286
X002032
Y008128
X0025019Y008001
X00254Y007112
X0024257Y006985
X002667
X002794Y007112
Y006858
X00254
X002286
Y007112
X002159Y006985
X0011527Y0075281
X0011557Y0077851
X0009906Y0074295
X00075Y007354
X0006731Y0075184
X0008948Y0082989
X0028829Y0082
X0029897Y00793
X0029845Y0077724
X0032258Y0077978
Y0078994
X0033274
X003429
Y0077978
Y0076962
X0033274
X0032258
X0033274Y0077978
X003302Y0074168
X0034544
X0036068
X0037465Y007493
X003937
X004064Y00762
X004191Y007493
X0043815
X004572Y0074168
X0047244
X0048768
X0050165Y007493
X005207
X005334Y00762
Y007366
Y007112
X005207Y006985
X00508Y006858
X005334
X0055245
X005588Y0069215
X005705Y0066294
X0056515Y0065405
X0057785
X0059055
X0060325
X0061595
Y0062865
Y0061595
X0060325
Y0062865
X0059055
Y0061595
X0057785
Y0062865
X0056515
X0055245
Y0061595
X0056515
X0056515Y0059182
X0055245Y0059182
X0053975
X0052705
X0051435
X0050165
X0048895
X0048768Y0057785
X0046355
Y0059055
X0045085Y0060325
X0043815
Y0061595
Y0062865
X0045085
X0046355
X0047625
X0048895
Y0061595
X0050165
X0051435
X0052705
X0053975
Y0062865
X0052705
X0051435
X0050165
Y0065405
X0048895
X0047625
X0046355Y0065405
X004572Y0069215
X0047244
X0048768
X0048006Y0069977
X0046482
X0044958
X0044196Y0069215
Y0070739
X004572
X0047244
X0048768
X0046482Y0071882
X004572Y0072644
X0046482Y0073406
X0045974Y0076962
Y0077978
X0044958
Y0078994
X0045974
X004699
Y0077978
Y0076962
X0044958
X0042545Y0077724
X0042418Y0079375
Y0080899
X0043942
X004318Y0080137
X004064Y0079756
Y0080772
X003937
X00381
X003683
Y0079756
Y007874
X0035433Y0080391
Y0081407
X0034798Y0082042
X0033528
X0034163Y0081407
X0036068Y0082042
X0036195Y008382
X0033655
X0041275
X0046355
X0046228Y0082042
X0047498
X0048133Y0081407
Y0080264
X0049403Y0080772
Y0079756
Y007874
X0050546Y0080772
X0051816
X0053086
Y0079756
Y007874
X0056Y008
X006
X0060575Y0084
X005875
X0053848Y008382
X0048641
X0048768Y0082042
X0046863Y0081407
X004064Y007874
Y007366
Y007112
X004191Y006985
X003937
X004064Y006858
X004318
X00381
X0036068Y0069215
Y0070739
X0034544
X003302
X0031496
X0032258Y0069977
X0033782
X0035306
X0034544Y0069215
X003302
X0031496
X003048Y006858
X002921Y006985
Y007493
X0033782Y0073406
X003302Y0072644
X0033782Y0071882
X00365252Y0065532
Y00634873
X0038989Y0060452
X0041275Y0061595
X0045085
X0047625
X0045085Y0057785
X0043815
X0029591Y0058293
X0028321Y0058293
X0051435Y0065405
X0052705
X0053975
X0055245
X0057785Y0059182
X0059055
X0060325Y0059055
X0061595Y0060325
X0062865Y0060325
Y0059055
Y0057785
X0061595Y0057785
X0065405Y0057785
Y0059055
X0065405Y0060325
Y0062865
X0062865
X0064135Y0061595
X0065595Y0075
X005875Y00728
X0068135Y0073865
Y008
X00705
X007225Y007875
X007625Y0078675
X008
X00815Y008
X007815Y00808626
Y00765
X007425Y0073361
X00818826Y00717874
X00839794
X0083875Y00702126
X008725Y0074
X009275
X009244Y008225
X009652Y008001
X0080375Y00835374
X0069375
X0105156Y0059944
Y0058928
T03
X0080391Y0022098
X0047879Y0022225
X004826Y003683
X00127Y006604
Y006985
Y007366
X002921Y006604
Y006223
X00762Y007112
Y007493
T04
X0114965Y0006705
X0116965
X0118965
X0120965
Y0009805
X0118965
X0116965
X0114965
Y0012905
X0116965
X0118965
X0120965
X0120325Y001771
Y001974
X0122075Y001873
Y002127
Y002381
Y002635
Y002889
Y003143
Y003397
Y003651
Y003905
Y004159
Y004413
Y004667
Y004921
Y005175
Y005429
X0120325Y00553
Y005327
X0117825Y005276
Y005073
X0116075Y005175
Y005429
X0114325Y00553
Y005327
Y005022
Y004819
X0116075Y004921
Y004667
Y004413
Y004159
Y003905
Y003651
Y003397
Y003143
Y002889
Y002635
Y002381
Y002127
Y001873
X0114325Y001974
Y001771
Y002279
Y002482
Y002787
Y00299
Y003295
Y003498
Y003803
Y004006
Y004311
Y004514
X0117825Y004565
Y004768
X0120325Y004819
Y005022
X0123825Y005073
Y005276
Y005581
X0117825
X0120325Y004514
Y004311
X0117825Y00426
Y004057
X0120325Y004006
Y003803
X0117825Y003752
Y003549
X0120325Y003498
Y003295
X0117825Y003244
Y003041
X0120325Y00299
Y002787
X0117825Y002736
Y002533
X0120325Y002482
Y002279
X0117825Y002228
Y002025
X0123825
Y002228
Y002533
Y002736
Y003041
Y003244
Y003549
Y003752
Y004057
Y00426
Y004565
Y004768
Y005784
X0122075Y005683
Y005937
Y006191
Y006445
Y006699
X0123825Y0068
Y006597
Y006292
Y006089
X0120325Y006038
Y005835
X0117825Y005784
X0116075Y005683
Y005937
Y006191
Y006445
Y006699
X0117825Y0068
Y006597
X0120325Y006546
Y006343
X0117825Y006292
Y006089
X0114325Y006038
Y005835
Y006343
Y006546
X0114965Y0072805
X0116965
X0118965
X0120965
Y0075905
X0118965
X0116965
X0114965
Y0079005
X0116965
X0118965
X0120965
T05
X0019685Y0031242
X0022225
X006248Y008125
X006502
T06
X00875Y000375
Y000875
X00925
Y000375
X009Y000625
Y001125
X01Y001375
X0105
X01025Y001625
X01Y001875
X0105
X01025Y002125
X0105Y0065
Y007
X01
X01025Y00725
Y00675
X01Y0065
T07
X00017526Y00385478
X00039624
Y00409862
X00017526
Y00574548
X00039624
Y00598932
X00017526
Y00782589
X00039624
Y00806973
X00017526
T08
X002875Y0004225
Y00074
Y001375
X00478
Y0004225
X006125Y0004225
Y00074
Y001375
X00803
Y0004225
T09
X001524Y0004826
X010668
X001524Y0081026
X010668
M30
